<svg xmlns="http://www.w3.org/2000/svg" xmlns:xlink="http://www.w3.org/1999/xlink" width="40" zoomAndPan="magnify" viewBox="0 0 30 30.000001" height="40" preserveAspectRatio="xMidYMid meet" version="1.2"><defs><clipPath id="9dc27db36e"><path d="M 0.484375 0 L 29.515625 0 L 29.515625 29.03125 L 0.484375 29.03125 Z M 0.484375 0 "/></clipPath></defs><g id="8852fbe66f"><g clip-rule="nonzero" clip-path="url(#9dc27db36e)"><path style=" stroke:none;fill-rule:nonzero;fill:#ffffff;fill-opacity:1;" d="M 0.484375 0 L 29.515625 0 L 29.515625 29.03125 L 0.484375 29.03125 Z M 0.484375 0 "/><path style=" stroke:none;fill-rule:nonzero;fill:#ffffff;fill-opacity:1;" d="M 0.484375 0 L 29.515625 0 L 29.515625 29.03125 L 0.484375 29.03125 Z M 0.484375 0 "/><path style=" stroke:none;fill-rule:evenodd;fill:#ffffff;fill-opacity:1;" d="M 6.492188 2.253906 C 6.492188 1.007812 7.5 0 8.742188 0 C 9.988281 0 10.996094 1.007812 10.996094 2.253906 L 10.996094 3.003906 L 19.003906 3.003906 L 19.003906 2.253906 C 19.003906 1.007812 20.011719 0 21.257812 0 C 22.5 0 23.507812 1.007812 23.507812 2.253906 L 23.507812 3.003906 L 27.011719 3.003906 C 28.394531 3.003906 29.515625 4.125 29.515625 5.507812 L 29.515625 26.53125 C 29.515625 27.910156 28.394531 29.03125 27.011719 29.03125 L 2.988281 29.03125 C 1.605469 29.03125 0.484375 27.910156 0.484375 26.53125 L 0.484375 5.507812 C 0.484375 4.125 1.605469 3.003906 2.988281 3.003906 L 6.492188 3.003906 Z M 23.507812 4.003906 L 23.507812 5.253906 C 23.507812 6.5 22.5 7.507812 21.257812 7.507812 C 20.011719 7.507812 19.003906 6.5 19.003906 5.253906 L 19.003906 4.003906 L 10.996094 4.003906 L 10.996094 5.253906 C 10.996094 6.5 9.988281 7.507812 8.742188 7.507812 C 7.5 7.507812 6.492188 6.5 6.492188 5.253906 L 6.492188 4.003906 L 2.988281 4.003906 C 2.15625 4.003906 1.484375 4.675781 1.484375 5.507812 L 1.484375 8.007812 L 28.515625 8.007812 L 28.515625 5.507812 C 28.515625 4.675781 27.84375 4.003906 27.011719 4.003906 Z M 8.742188 1 C 8.050781 1 7.492188 1.5625 7.492188 2.253906 L 7.492188 5.253906 C 7.492188 5.945312 8.050781 6.507812 8.742188 6.507812 C 9.433594 6.507812 9.996094 5.945312 9.996094 5.253906 L 9.996094 2.253906 C 9.996094 1.5625 9.433594 1 8.742188 1 Z M 1.484375 9.011719 L 1.484375 26.53125 C 1.484375 27.359375 2.15625 28.03125 2.988281 28.03125 L 27.011719 28.03125 C 27.84375 28.03125 28.515625 27.359375 28.515625 26.53125 L 28.515625 9.011719 Z M 20.003906 2.253906 C 20.003906 1.5625 20.566406 1 21.257812 1 C 21.949219 1 22.507812 1.5625 22.507812 2.253906 L 22.507812 5.253906 C 22.507812 5.945312 21.949219 6.507812 21.257812 6.507812 C 20.566406 6.507812 20.003906 5.945312 20.003906 5.253906 Z M 4.488281 13.015625 C 4.488281 12.460938 4.9375 12.011719 5.488281 12.011719 L 8.492188 12.011719 C 9.046875 12.011719 9.492188 12.460938 9.492188 13.015625 L 9.492188 16.019531 C 9.492188 16.570312 9.046875 17.019531 8.492188 17.019531 L 5.488281 17.019531 C 4.9375 17.019531 4.488281 16.570312 4.488281 16.019531 Z M 8.492188 13.015625 L 5.488281 13.015625 L 5.488281 16.019531 L 8.492188 16.019531 Z M 5.488281 20.023438 C 4.9375 20.023438 4.488281 20.46875 4.488281 21.023438 L 4.488281 24.027344 C 4.488281 24.578125 4.9375 25.027344 5.488281 25.027344 L 8.492188 25.027344 C 9.046875 25.027344 9.492188 24.578125 9.492188 24.027344 L 9.492188 21.023438 C 9.492188 20.46875 9.046875 20.023438 8.492188 20.023438 Z M 5.488281 21.023438 L 8.492188 21.023438 L 8.492188 24.027344 L 5.488281 24.027344 Z M 12.496094 13.015625 C 12.496094 12.460938 12.945312 12.011719 13.5 12.011719 L 16.5 12.011719 C 17.054688 12.011719 17.503906 12.460938 17.503906 13.015625 L 17.503906 16.019531 C 17.503906 16.570312 17.054688 17.019531 16.5 17.019531 L 13.5 17.019531 C 12.945312 17.019531 12.496094 16.570312 12.496094 16.019531 Z M 16.5 13.015625 L 13.5 13.015625 L 13.5 16.019531 L 16.5 16.019531 Z M 13.5 20.023438 C 12.945312 20.023438 12.496094 20.46875 12.496094 21.023438 L 12.496094 24.027344 C 12.496094 24.578125 12.945312 25.027344 13.5 25.027344 L 16.5 25.027344 C 17.054688 25.027344 17.503906 24.578125 17.503906 24.027344 L 17.503906 21.023438 C 17.503906 20.46875 17.054688 20.023438 16.5 20.023438 Z M 13.5 21.023438 L 16.5 21.023438 L 16.5 24.027344 L 13.5 24.027344 Z M 20.507812 21.023438 C 20.507812 20.46875 20.953125 20.023438 21.507812 20.023438 L 24.511719 20.023438 C 25.0625 20.023438 25.511719 20.46875 25.511719 21.023438 L 25.511719 24.027344 C 25.511719 24.578125 25.0625 25.027344 24.511719 25.027344 L 21.507812 25.027344 C 20.953125 25.027344 20.507812 24.578125 20.507812 24.027344 Z M 24.511719 21.023438 L 21.507812 21.023438 L 21.507812 24.027344 L 24.511719 24.027344 Z M 25.925781 12.296875 C 26.082031 12.070312 26.023438 11.757812 25.796875 11.601562 C 25.566406 11.445312 25.253906 11.503906 25.097656 11.730469 L 22.6875 15.238281 L 21.359375 13.910156 C 21.164062 13.714844 20.847656 13.714844 20.652344 13.910156 C 20.457031 14.105469 20.457031 14.425781 20.652344 14.621094 L 22.40625 16.371094 C 22.511719 16.476562 22.65625 16.53125 22.804688 16.515625 C 22.953125 16.503906 23.085938 16.425781 23.171875 16.300781 Z M 25.925781 12.296875 "/></g></g></svg>