<svg xmlns="http://www.w3.org/2000/svg" xmlns:xlink="http://www.w3.org/1999/xlink" width="20"
    zoomAndPan="magnify" viewBox="0 0 37.5 37.499999" height="20"
    preserveAspectRatio="xMidYMid meet" version="1.2">
    <defs>
        <clipPath id="b5d584e56c">
            <path
                d="M 3.847656 3.773438 L 33.453125 3.773438 L 33.453125 33.378906 L 3.847656 33.378906 Z M 3.847656 3.773438 " />
        </clipPath>
    </defs>
    <g id="a15d2f217d">
        <g clip-rule="nonzero" clip-path="url(#b5d584e56c)">
            <path style=" stroke:none;fill-rule:nonzero;fill:#ffffff;fill-opacity:1;"
                d="M 32.148438 12.769531 C 31.402344 11.015625 30.34375 9.441406 28.988281 8.089844 C 27.636719 6.734375 26.0625 5.675781 24.308594 4.933594 C 22.492188 4.164062 20.5625 3.773438 18.574219 3.773438 C 16.589844 3.773438 14.660156 4.164062 12.84375 4.933594 C 11.089844 5.675781 9.515625 6.734375 8.164062 8.089844 C 6.808594 9.441406 5.75 11.015625 5.007812 12.769531 C 4.238281 14.585938 3.847656 16.515625 3.847656 18.503906 C 3.847656 20.488281 4.238281 22.417969 5.007812 24.234375 C 5.75 25.988281 6.808594 27.5625 8.164062 28.917969 C 9.515625 30.269531 11.089844 31.332031 12.84375 32.070312 C 14.660156 32.839844 16.589844 33.230469 18.574219 33.230469 C 20.5625 33.230469 22.492188 32.839844 24.308594 32.070312 C 26.0625 31.332031 27.636719 30.269531 28.988281 28.917969 C 30.34375 27.5625 31.402344 25.988281 32.144531 24.234375 C 32.914062 22.417969 33.304688 20.488281 33.304688 18.503906 C 33.304688 16.515625 32.914062 14.585938 32.148438 12.769531 Z M 18.574219 31.949219 C 11.160156 31.949219 5.128906 25.917969 5.128906 18.503906 C 5.128906 11.085938 11.160156 5.054688 18.574219 5.054688 C 25.992188 5.054688 32.023438 11.085938 32.023438 18.503906 C 32.023438 25.917969 25.992188 31.949219 18.574219 31.949219 Z M 18.574219 31.949219 " />
        </g>
        <path style=" stroke:none;fill-rule:nonzero;fill:#ffffff;fill-opacity:1;"
            d="M 17.980469 6.324219 L 19.171875 6.324219 L 19.171875 9.542969 L 17.980469 9.542969 Z M 17.980469 6.324219 " />
        <path style=" stroke:none;fill-rule:nonzero;fill:#ffffff;fill-opacity:1;"
            d="M 11.972656 8.253906 L 13.003906 7.660156 L 14.613281 10.445312 L 13.582031 11.042969 Z M 11.972656 8.253906 " />
        <path style=" stroke:none;fill-rule:nonzero;fill:#ffffff;fill-opacity:1;"
            d="M 7.734375 12.929688 L 8.328125 11.898438 L 11.117188 13.507812 L 10.519531 14.539062 Z M 7.734375 12.929688 " />
        <path style=" stroke:none;fill-rule:nonzero;fill:#ffffff;fill-opacity:1;"
            d="M 6.398438 17.90625 L 9.617188 17.90625 L 9.617188 19.097656 L 6.398438 19.097656 Z M 6.398438 17.90625 " />
        <path style=" stroke:none;fill-rule:nonzero;fill:#ffffff;fill-opacity:1;"
            d="M 7.734375 24.074219 L 10.519531 22.464844 L 11.117188 23.496094 L 8.328125 25.105469 Z M 7.734375 24.074219 " />
        <path style=" stroke:none;fill-rule:nonzero;fill:#ffffff;fill-opacity:1;"
            d="M 11.972656 28.75 L 13.582031 25.960938 L 14.613281 26.558594 L 13.003906 29.347656 Z M 11.972656 28.75 " />
        <path style=" stroke:none;fill-rule:nonzero;fill:#ffffff;fill-opacity:1;"
            d="M 17.980469 27.460938 L 19.171875 27.460938 L 19.171875 30.679688 L 17.980469 30.679688 Z M 17.980469 27.460938 " />
        <path style=" stroke:none;fill-rule:nonzero;fill:#ffffff;fill-opacity:1;"
            d="M 22.539062 26.558594 L 23.574219 25.960938 L 25.179688 28.75 L 24.148438 29.34375 Z M 22.539062 26.558594 " />
        <path style=" stroke:none;fill-rule:nonzero;fill:#ffffff;fill-opacity:1;"
            d="M 26.035156 23.5 L 26.632812 22.464844 L 29.417969 24.074219 L 28.824219 25.109375 Z M 26.035156 23.5 " />
        <path style=" stroke:none;fill-rule:nonzero;fill:#ffffff;fill-opacity:1;"
            d="M 27.535156 17.90625 L 30.753906 17.90625 L 30.753906 19.097656 L 27.535156 19.097656 Z M 27.535156 17.90625 " />
        <path style=" stroke:none;fill-rule:nonzero;fill:#ffffff;fill-opacity:1;"
            d="M 26.035156 13.507812 L 28.824219 11.898438 L 29.417969 12.929688 L 26.632812 14.539062 Z M 26.035156 13.507812 " />
        <path style=" stroke:none;fill-rule:nonzero;fill:#ffffff;fill-opacity:1;"
            d="M 22.539062 10.445312 L 24.148438 7.660156 L 25.179688 8.253906 L 23.570312 11.042969 Z M 22.539062 10.445312 " />
        <path style=" stroke:none;fill-rule:nonzero;fill:#ffffff;fill-opacity:1;"
            d="M 19.097656 16.765625 L 19.097656 11.363281 C 19.097656 11.066406 18.855469 10.824219 18.558594 10.824219 C 18.261719 10.824219 18.019531 11.0625 18.019531 11.363281 L 18.019531 16.78125 C 17.605469 16.988281 17.320312 17.414062 17.320312 17.90625 C 17.320312 18.023438 17.335938 18.136719 17.367188 18.242188 L 14.054688 20.324219 C 13.765625 20.507812 13.679688 20.886719 13.859375 21.175781 C 14.042969 21.464844 14.421875 21.550781 14.710938 21.371094 L 18.28125 19.125 C 18.375 19.148438 18.472656 19.160156 18.574219 19.160156 C 19.265625 19.160156 19.828125 18.597656 19.828125 17.90625 C 19.832031 17.398438 19.527344 16.960938 19.097656 16.765625 Z M 19.097656 16.765625 " />
    </g>
</svg>